<?xml version="1.0" encoding="UTF-8"?>
<svg width="24px" height="25px" viewBox="0 0 24 25" version="1.1" xmlns="http://www.w3.org/2000/svg" xmlns:xlink="http://www.w3.org/1999/xlink">
    <!-- Generator: Sketch 40.3 (33839) - http://www.bohemiancoding.com/sketch -->
    <title>commerce-api-logo</title>
    <desc>Created with Sketch.</desc>
    <defs>
        <radialGradient cx="50%" cy="4.54799107%" fx="50%" fy="4.54799107%" r="92.8255717%" id="radialGradient-1">
            <stop stop-color="#40D758" offset="0%"></stop>
            <stop stop-color="#17AB1C" offset="100%"></stop>
        </radialGradient>
    </defs>
    <g id="Open-Source" stroke="none" stroke-width="1" fill="none" fill-rule="evenodd">
        <g id="open-source-v3" transform="translate(-570.000000, -891.000000)" fill="url(#radialGradient-1)">
            <g id="netlify-projects" transform="translate(4.000000, 526.000000)">
                <g id="Group-4-Copy-3" transform="translate(566.000000, 365.000000)">
                    <path d="M16.7162988,8.58539873 C16.8372124,8.64595382 16.9379737,8.72669393 17.0185827,8.81752657 C17.0286588,8.82761908 17.0286588,8.82761908 17.038735,8.82761908 L17.0488111,8.82761908 L19.3663209,7.82846012 C19.376397,7.81836761 19.3864731,7.80827509 19.3864731,7.79818258 C19.3864731,7.78809007 19.3864731,7.77799755 19.376397,7.76790504 L17.2201053,5.59801437 C17.2100292,5.58792186 17.199953,5.58792186 17.199953,5.58792186 L17.1898769,5.58792186 C17.1798008,5.58792186 17.1697246,5.59801437 17.1697246,5.6181994 L16.6961466,8.55512118 C16.6961466,8.5652137 16.6961466,8.58539873 16.7162988,8.58539873 Z M11.8999089,6.61735836 C12.0107464,6.78893111 12.0812793,6.9907814 12.1014315,7.1926317 C12.1014315,7.20272421 12.1115076,7.21281673 12.1215838,7.22290924 L15.5676201,8.7065089 L15.5776962,8.7065089 C15.5877723,8.7065089 15.5978484,8.7065089 15.5978484,8.69641639 C15.6986097,8.61567627 15.8195233,8.55512118 15.950513,8.51475112 C15.9605891,8.51475112 15.9706652,8.50465861 15.9706652,8.48447358 L16.5349285,4.94200091 C16.5349285,4.9319084 16.5349285,4.92181589 16.5248524,4.91172337 L14.3685607,2.74183271 C14.3584845,2.73174019 14.3584845,2.73174019 14.3484084,2.73174019 C14.3383323,2.73174019 14.3282561,2.74183271 14.3282561,2.75192522 L11.8999089,6.56689578 C11.8898328,6.58708081 11.8898328,6.60726584 11.8999089,6.61735836 Z M23.6789043,12.0774088 L19.9809648,8.3633634 C19.9708886,8.35327089 19.9608125,8.35327089 19.9608125,8.35327089 L19.9507364,8.35327089 L17.4417801,9.43316996 C17.431704,9.44326248 17.4216279,9.45335499 17.4216279,9.46344751 C17.4216279,9.47354002 17.431704,9.49372505 17.4417801,9.49372505 L23.6285237,12.1480564 L23.6385998,12.1480564 C23.6486759,12.1480564 23.658752,12.1480564 23.658752,12.1379639 L23.6789043,12.1177789 C23.6889804,12.1177789 23.6889804,12.0975938 23.6789043,12.0774088 Z M23.0541843,12.6829597 L17.119344,10.139646 L17.1092679,10.139646 C17.0991917,10.139646 17.0891156,10.139646 17.0790395,10.1497385 C16.9178214,10.3717738 16.6759943,10.513069 16.3938627,10.5534391 C16.3837865,10.5534391 16.3636343,10.5635316 16.3636343,10.5837166 L15.7288381,14.5298899 C15.7288381,14.5399824 15.7288381,14.5500749 15.7389143,14.5601674 C15.9605891,14.7317402 16.0915788,14.9840531 16.1218072,15.2666435 C16.1218072,15.2868285 16.1318833,15.296921 16.1520356,15.296921 L19.7391377,16.0538596 L19.7492138,16.0538596 C19.7592899,16.0538596 19.7693661,16.0538596 19.7693661,16.0437671 L23.0541843,12.7435148 C23.0642604,12.7334223 23.0642604,12.7233298 23.0642604,12.7132372 C23.0743365,12.7031447 23.0642604,12.6930522 23.0541843,12.6829597 Z M15.1948033,9.31205979 L11.9502896,7.91929276 L11.9402134,7.91929276 C11.9301373,7.91929276 11.9200612,7.92938527 11.9099851,7.93947779 C11.6883102,8.28262329 11.3154934,8.48447358 10.9124482,8.48447358 C10.8519915,8.48447358 10.7915347,8.47438107 10.7210018,8.46428855 L10.7109256,8.46428855 C10.7008495,8.46428855 10.6907734,8.47438107 10.6806973,8.48447358 L8.01052294,12.6728672 C8.00044681,12.6829597 8.00044681,12.7031447 8.01052294,12.7132372 C8.02059907,12.7233298 8.0306752,12.7233298 8.04075133,12.7233298 L8.05082746,12.7233298 L15.174651,9.64511277 C15.1847271,9.63502026 15.1948033,9.62492774 15.1948033,9.61483523 L15.1948033,9.57446517 L15.1948033,9.5240026 C15.1948033,9.46344751 15.2048794,9.40289242 15.2149555,9.35242985 C15.2250317,9.33224482 15.2149555,9.3221523 15.1948033,9.31205979 Z M19.1043415,16.6392255 L15.950513,15.983212 L15.9404369,15.983212 C15.9303607,15.983212 15.9202846,15.9933045 15.9102085,15.9933045 C15.7892949,16.1446923 15.638153,16.2658024 15.4567826,16.33645 C15.4467065,16.33645 15.4366304,16.3566351 15.4366304,16.3667276 L14.6809207,21.0698394 C14.6809207,21.0900245 14.6909968,21.100117 14.7010729,21.1102095 L14.7212252,21.1102095 C14.7313013,21.1102095 14.7413774,21.1102095 14.7413774,21.100117 L19.1144176,16.7098731 C19.1244938,16.6997806 19.1244938,16.689688 19.1244938,16.6795955 C19.1244938,16.6594105 19.1144176,16.649318 19.1043415,16.6392255 Z M14.7111491,16.3263575 C14.4088652,16.2052473 14.1871903,15.9327494 14.1065813,15.6198815 C14.1065813,15.609789 14.0965052,15.5996965 14.0763529,15.5896039 L8.23219779,14.3684097 C8.23219779,14.3684097 8.23219779,14.3684097 8.22212166,14.3684097 C8.21204553,14.3684097 8.2019694,14.3785022 8.19189327,14.3885947 C8.16166489,14.4390573 8.14151263,14.4794273 8.11128424,14.5197974 C8.10120811,14.5298899 8.10120811,14.5500749 8.11128424,14.5601674 L13.4314806,22.3515888 C13.4415567,22.3616813 13.4415567,22.3616813 13.4516329,22.3616813 C13.461709,22.3616813 13.4717851,22.3616813 13.4717851,22.3515888 L13.7942213,22.0286283 C13.7942213,22.0185358 13.8042974,22.0185358 13.8042974,22.0084433 L14.7111491,16.3566351 C14.7313013,16.3465425 14.7212252,16.3263575 14.7111491,16.3263575 Z M8.35311135,13.6417486 C8.35311135,13.6619336 8.36318748,13.6720261 8.38333973,13.6720261 L14.1771142,14.8831279 L14.1871903,14.8831279 C14.1972665,14.8831279 14.2073426,14.8730354 14.2174187,14.8629429 C14.3887129,14.5601674 14.6909968,14.3583171 15.0335852,14.3381321 C15.0537375,14.3381321 15.0638136,14.3280396 15.0638136,14.3078546 L15.6885336,10.4222364 C15.6885336,10.4121439 15.6885336,10.3919589 15.6683814,10.3919589 C15.6280768,10.3616813 15.5877723,10.3314038 15.5373917,10.2809412 C15.5273155,10.2708487 15.5172394,10.2708487 15.5172394,10.2708487 L15.5071633,10.2708487 L8.34303522,13.3692507 C8.32288296,13.3793432 8.32288296,13.3894357 8.32288296,13.4096208 C8.33295909,13.4903609 8.34303522,13.5610085 8.35311135,13.6417486 Z M5.91468801,14.6207225 C5.88445962,14.5803525 5.85423123,14.5399824 5.82400284,14.4895198 C5.81392672,14.4794273 5.80385059,14.4693348 5.79377446,14.4693348 L5.78369833,14.4693348 L3.28481821,15.5492339 C3.27474208,15.5492339 3.26466595,15.5593264 3.26466595,15.5694189 C3.26466595,15.5795114 3.26466595,15.5896039 3.27474208,15.5996965 L4.49395375,16.8208907 C4.50402988,16.8309833 4.51410601,16.8309833 4.51410601,16.8309833 C4.52418214,16.8309833 4.53425827,16.8208907 4.5443344,16.8107982 L5.92476414,14.6409076 C5.92476414,14.6510001 5.92476414,14.630815 5.91468801,14.6207225 Z M7.57724938,15.0143306 C7.56717325,15.0042381 7.55709712,14.9941456 7.54702099,14.9941456 L7.53694486,14.9941456 C7.35557453,15.0748857 7.1742042,15.1152558 6.98275774,15.1152558 C6.83161579,15.1152558 6.69054998,15.0950707 6.53940804,15.0446081 L6.52933191,15.0446081 C6.51925578,15.0446081 6.50917965,15.0547007 6.49910352,15.0647932 L5.04814087,17.3457015 L5.03806474,17.355794 C5.02798862,17.3658865 5.02798862,17.3860716 5.03806474,17.3961641 L11.7084625,24.0875013 C11.7185386,24.0975938 11.7286147,24.0975938 11.7286147,24.0975938 C11.7386909,24.0975938 11.748767,24.0975938 11.748767,24.0875013 L12.917598,22.9066771 C12.9276741,22.8965846 12.9276741,22.8763996 12.917598,22.8663071 L7.57724938,15.0143306 Z M6.64016933,12.3801843 C6.65024546,12.3902768 6.66032159,12.4003693 6.67039772,12.4003693 L6.68047385,12.4003693 C6.78123515,12.3801843 6.89207257,12.3599992 6.99283387,12.3599992 C7.10367129,12.3599992 7.22458484,12.3801843 7.33542227,12.4104618 L7.3454984,12.4104618 C7.35557453,12.4104618 7.36565066,12.4003693 7.37572679,12.3902768 L10.0761295,8.1514206 C10.0862056,8.14132808 10.0862056,8.12114305 10.0761295,8.11105054 C9.86453077,7.88901521 9.74361722,7.59633229 9.74361722,7.28346433 C9.74361722,7.1926317 9.75369335,7.10179906 9.7738456,7.01096643 C9.7738456,6.9907814 9.76376947,6.98068889 9.75369335,6.97059637 C9.41110494,6.81920865 6.37818997,5.52736677 6.37818997,5.51727425 L6.36811384,5.51727425 C6.35803771,5.51727425 6.34796158,5.51727425 6.34796158,5.52736677 L3.77854856,8.11105054 C3.76847243,8.12114305 3.76847243,8.14132808 3.77854856,8.1514206 L6.64016933,12.3801843 Z M6.92230096,4.99246349 C6.92230096,4.99246349 9.98544432,6.3044904 10.116434,6.36504549 L10.1265101,6.36504549 C10.1365863,6.36504549 10.1365863,6.36504549 10.1466624,6.35495298 C10.3582611,6.18338023 10.6303166,6.08245508 10.9023721,6.08245508 C11.0333618,6.08245508 11.1643515,6.10264011 11.2953412,6.14301017 L11.3054173,6.14301017 C11.3154934,6.14301017 11.3255695,6.13291765 11.3356457,6.12282514 L13.8244497,2.21702194 C13.8345258,2.20692943 13.8345258,2.1867444 13.8244497,2.17665188 L11.7588431,0.107686365 C11.748767,0.09759385 11.748767,0.09759385 11.7386909,0.09759385 C11.7286147,0.09759385 11.7185386,0.09759385 11.7185386,0.107686365 L6.92230096,4.9319084 C6.91222483,4.94200091 6.91222483,4.95209343 6.91222483,4.96218594 C6.9021487,4.98237097 6.91222483,4.99246349 6.92230096,4.99246349 Z M5.73331768,13.1169378 C5.74339381,13.1169378 5.75346994,13.1068453 5.76354607,13.0967528 C5.82400284,12.9756426 5.91468801,12.864625 6.00537318,12.7636998 C6.0154493,12.7536073 6.0154493,12.7334223 6.00537318,12.7233298 C5.97514479,12.6829597 3.2445137,8.68632388 3.2445137,8.67623136 C3.23443757,8.66613885 3.23443757,8.66613885 3.21428531,8.65604633 C3.20420918,8.65604633 3.19413305,8.65604633 3.19413305,8.66613885 L0.0100761295,11.8553735 C0,11.865466 0,11.8755585 0,11.885651 C0,11.8957436 0.0100761295,11.9058361 0.0302283885,11.9058361 L5.73331768,13.1169378 Z M5.47133831,13.8133214 C5.47133831,13.7931363 5.46126218,13.7830438 5.44110992,13.7830438 L0.493730345,12.7435148 C0.493730345,12.7435148 0.493730345,12.7435148 0.483654215,12.7435148 C0.473578086,12.7435148 0.463501956,12.7536073 0.453425827,12.7636998 C0.443349698,12.7737923 0.453425827,12.7939774 0.463501956,12.8040699 L2.67017431,15.0244231 C2.68025044,15.0345156 2.69032657,15.0345156 2.69032657,15.0345156 L2.7004027,15.0345156 L5.44110992,13.8536914 C5.47133831,13.8435989 5.47133831,13.8234139 5.47133831,13.8133214 Z" id="commerce-api-logo"></path>
                </g>
            </g>
        </g>
    </g>
</svg>